<?xml version="1.0" encoding="utf-8"?>
<!-- Generator: Adobe Illustrator 30.6.0, SVG Export Plug-In . SVG Version: 9.03 Build 0)  -->
<svg version="1.1" xmlns="http://www.w3.org/2000/svg" xmlns:xlink="http://www.w3.org/1999/xlink" x="0px" y="0px"
	 viewBox="0 0 1024 1024" style="enable-background:new 0 0 1024 1024;" xml:space="preserve">
<g>
</g>
<g id="_x34___x2013__Layer">
	<path style="fill:#FFFFFF;" d="M527.7246094,543.0107422h-117.659668v213.8603516H298.6948242V211.4912109h267.5102539
		c38.2304688,0.7397461,67.6464844,5.4287109,88.2441406,14.0600586c20.59375,8.637207,38.046875,21.3383789,52.3554688,38.1098633
		c11.8398438,13.8173828,21.2109375,29.1083984,28.1201172,45.8798828
		c6.9033203,16.7773438,10.3603516,35.8901367,10.3603516,57.3500977c0,25.8999023-6.5390625,51.3720703-19.6103516,76.4047852
		c-13.0771484,25.0385742-34.6591797,42.7353516-64.75,53.0952148
		c25.1601562,10.1171875,42.9775391,24.4838867,53.4648438,43.1049805
		c10.4814453,18.6269531,15.7255859,47.0537109,15.7255859,85.2851562v36.6298828
		c0,24.9169922,0.9824219,41.8095703,2.9589844,50.6904297c2.9609375,14.0595703,9.8632812,24.4199219,20.7207031,31.0791016
		v13.6904297H628.3652344c-3.4570312-12.0830078-5.9199219-21.8300781-7.4003906-29.2304688
		c-2.9599609-15.2910156-4.5673828-30.9521484-4.8105469-46.9892578l-0.7402344-50.6904297
		c-0.4960938-34.7802734-6.84375-57.9628906-19.0546875-69.5595703
		C584.1503906,548.8095703,561.2675781,543.0107422,527.7246094,543.0107422z M596.9140625,443.8510742
		c22.6914062-10.3598633,34.0410156-30.831543,34.0410156-61.4199219c0-33.0512695-10.9785156-55.2514648-32.9296875-66.6000977
		c-12.3378906-6.4111328-30.8378906-9.6201172-55.5-9.6201172H410.0649414V452.730957h129.1303711
		C564.8457031,452.730957,584.0859375,449.7709961,596.9140625,443.8510742z"/>
</g>
</svg>
